<svg xmlns="http://www.w3.org/2000/svg" width="330" height="114" viewBox="0 0 330 114">
<rect width="330" height="114" fill="#151515"/>
<g transform="translate(12,12)">
<rect x="0" y="36" width="306" height="18" fill="#6a9fb5"/>
<rect x="0" y="72" width="306" height="18" fill="#232323"/>
<g font-family="ui-monospace, 'Cascadia Mono', 'JetBrains Mono', Menlo, Consolas, monospace" font-size="14" text-anchor="middle">
<text x="4.5" y="14" textLength="9" fill="#6a9fb5" font-weight="bold">T</text>
<text x="13.5" y="14" textLength="9" fill="#6a9fb5" font-weight="bold">y</text>
<text x="22.5" y="14" textLength="9" fill="#6a9fb5" font-weight="bold">p</text>
<text x="31.5" y="14" textLength="9" fill="#6a9fb5" font-weight="bold">e</text>
<text x="175.5" y="14" textLength="9" fill="#6a9fb5" font-weight="bold">C</text>
<text x="184.5" y="14" textLength="9" fill="#6a9fb5" font-weight="bold">o</text>
<text x="193.5" y="14" textLength="9" fill="#6a9fb5" font-weight="bold">u</text>
<text x="202.5" y="14" textLength="9" fill="#6a9fb5" font-weight="bold">n</text>
<text x="211.5" y="14" textLength="9" fill="#6a9fb5" font-weight="bold">t</text>
<text x="265.5" y="14" textLength="9" fill="#6a9fb5" font-weight="bold">B</text>
<text x="274.5" y="14" textLength="9" fill="#6a9fb5" font-weight="bold">y</text>
<text x="283.5" y="14" textLength="9" fill="#6a9fb5" font-weight="bold">t</text>
<text x="292.5" y="14" textLength="9" fill="#6a9fb5" font-weight="bold">e</text>
<text x="301.5" y="14" textLength="9" fill="#6a9fb5" font-weight="bold">s</text>
<text x="4.5" y="32" textLength="9" fill="#d0d0d0">S</text>
<text x="13.5" y="32" textLength="9" fill="#d0d0d0">t</text>
<text x="22.5" y="32" textLength="9" fill="#d0d0d0">r</text>
<text x="31.5" y="32" textLength="9" fill="#d0d0d0">i</text>
<text x="40.5" y="32" textLength="9" fill="#d0d0d0">n</text>
<text x="49.5" y="32" textLength="9" fill="#d0d0d0">g</text>
<text x="175.5" y="32" textLength="9" fill="#d0d0d0">1</text>
<text x="184.5" y="32" textLength="9" fill="#d0d0d0">,</text>
<text x="193.5" y="32" textLength="9" fill="#d0d0d0">2</text>
<text x="202.5" y="32" textLength="9" fill="#d0d0d0">0</text>
<text x="211.5" y="32" textLength="9" fill="#d0d0d0">4</text>
<text x="247.5" y="32" textLength="9" fill="#d0d0d0">4</text>
<text x="256.5" y="32" textLength="9" fill="#d0d0d0">8</text>
<text x="265.5" y="32" textLength="9" fill="#d0d0d0">.</text>
<text x="274.5" y="32" textLength="9" fill="#d0d0d0">2</text>
<text x="292.5" y="32" textLength="9" fill="#d0d0d0">K</text>
<text x="301.5" y="32" textLength="9" fill="#d0d0d0">B</text>
<text x="4.5" y="50" textLength="9" fill="#151515">B</text>
<text x="13.5" y="50" textLength="9" fill="#151515">y</text>
<text x="22.5" y="50" textLength="9" fill="#151515">t</text>
<text x="31.5" y="50" textLength="9" fill="#151515">e</text>
<text x="40.5" y="50" textLength="9" fill="#151515">[</text>
<text x="49.5" y="50" textLength="9" fill="#151515">]</text>
<text x="193.5" y="50" textLength="9" fill="#151515">3</text>
<text x="202.5" y="50" textLength="9" fill="#151515">1</text>
<text x="211.5" y="50" textLength="9" fill="#151515">2</text>
<text x="247.5" y="50" textLength="9" fill="#151515">2</text>
<text x="256.5" y="50" textLength="9" fill="#151515">2</text>
<text x="265.5" y="50" textLength="9" fill="#151515">.</text>
<text x="274.5" y="50" textLength="9" fill="#151515">9</text>
<text x="292.5" y="50" textLength="9" fill="#151515">K</text>
<text x="301.5" y="50" textLength="9" fill="#151515">B</text>
<text x="4.5" y="68" textLength="9" fill="#d0d0d0">D</text>
<text x="13.5" y="68" textLength="9" fill="#d0d0d0">i</text>
<text x="22.5" y="68" textLength="9" fill="#d0d0d0">c</text>
<text x="31.5" y="68" textLength="9" fill="#d0d0d0">t</text>
<text x="40.5" y="68" textLength="9" fill="#d0d0d0">i</text>
<text x="49.5" y="68" textLength="9" fill="#d0d0d0">o</text>
<text x="58.5" y="68" textLength="9" fill="#d0d0d0">n</text>
<text x="67.5" y="68" textLength="9" fill="#d0d0d0">a</text>
<text x="76.5" y="68" textLength="9" fill="#d0d0d0">r</text>
<text x="85.5" y="68" textLength="9" fill="#d0d0d0">y</text>
<text x="202.5" y="68" textLength="9" fill="#d0d0d0">8</text>
<text x="211.5" y="68" textLength="9" fill="#d0d0d0">8</text>
<text x="247.5" y="68" textLength="9" fill="#d0d0d0">1</text>
<text x="256.5" y="68" textLength="9" fill="#d0d0d0">2</text>
<text x="265.5" y="68" textLength="9" fill="#d0d0d0">.</text>
<text x="274.5" y="68" textLength="9" fill="#d0d0d0">1</text>
<text x="292.5" y="68" textLength="9" fill="#d0d0d0">K</text>
<text x="301.5" y="68" textLength="9" fill="#d0d0d0">B</text>
<text x="4.5" y="86" textLength="9" fill="#d0d0d0">N</text>
<text x="13.5" y="86" textLength="9" fill="#d0d0d0">o</text>
<text x="22.5" y="86" textLength="9" fill="#d0d0d0">d</text>
<text x="31.5" y="86" textLength="9" fill="#d0d0d0">e</text>
<text x="175.5" y="86" textLength="9" fill="#d0d0d0">1</text>
<text x="184.5" y="86" textLength="9" fill="#d0d0d0">,</text>
<text x="193.5" y="86" textLength="9" fill="#d0d0d0">9</text>
<text x="202.5" y="86" textLength="9" fill="#d0d0d0">1</text>
<text x="211.5" y="86" textLength="9" fill="#d0d0d0">0</text>
<text x="256.5" y="86" textLength="9" fill="#d0d0d0">9</text>
<text x="265.5" y="86" textLength="9" fill="#d0d0d0">.</text>
<text x="274.5" y="86" textLength="9" fill="#d0d0d0">4</text>
<text x="292.5" y="86" textLength="9" fill="#d0d0d0">K</text>
<text x="301.5" y="86" textLength="9" fill="#d0d0d0">B</text>
</g>
</g>
</svg>
