<svg xmlns="http://www.w3.org/2000/svg" width="384" height="132" viewBox="0 0 384 132">
<rect width="384" height="132" fill="#151515"/>
<g transform="translate(12,12)">
<rect x="0" y="0" width="360" height="18" fill="#6a9fb5"/>
<g font-family="ui-monospace, 'Cascadia Mono', 'JetBrains Mono', Menlo, Consolas, monospace" font-size="14" text-anchor="middle">
<text x="4.5" y="14" textLength="9" fill="#151515">▼</text>
<text x="22.5" y="14" textLength="9" fill="#151515">H</text>
<text x="31.5" y="14" textLength="9" fill="#151515">t</text>
<text x="40.5" y="14" textLength="9" fill="#151515">t</text>
<text x="49.5" y="14" textLength="9" fill="#151515">p</text>
<text x="58.5" y="14" textLength="9" fill="#151515">S</text>
<text x="67.5" y="14" textLength="9" fill="#151515">e</text>
<text x="76.5" y="14" textLength="9" fill="#151515">r</text>
<text x="85.5" y="14" textLength="9" fill="#151515">v</text>
<text x="94.5" y="14" textLength="9" fill="#151515">e</text>
<text x="103.5" y="14" textLength="9" fill="#151515">r</text>
<text x="4.5" y="32" textLength="9" fill="#505050">├</text>
<text x="13.5" y="32" textLength="9" fill="#505050">─</text>
<text x="22.5" y="32" textLength="9" fill="#505050">▼</text>
<text x="40.5" y="32" textLength="9" fill="#d0d0d0">U</text>
<text x="49.5" y="32" textLength="9" fill="#d0d0d0">s</text>
<text x="58.5" y="32" textLength="9" fill="#d0d0d0">e</text>
<text x="67.5" y="32" textLength="9" fill="#d0d0d0">r</text>
<text x="76.5" y="32" textLength="9" fill="#d0d0d0">C</text>
<text x="85.5" y="32" textLength="9" fill="#d0d0d0">o</text>
<text x="94.5" y="32" textLength="9" fill="#d0d0d0">n</text>
<text x="103.5" y="32" textLength="9" fill="#d0d0d0">t</text>
<text x="112.5" y="32" textLength="9" fill="#d0d0d0">r</text>
<text x="121.5" y="32" textLength="9" fill="#d0d0d0">o</text>
<text x="130.5" y="32" textLength="9" fill="#d0d0d0">l</text>
<text x="139.5" y="32" textLength="9" fill="#d0d0d0">l</text>
<text x="148.5" y="32" textLength="9" fill="#d0d0d0">e</text>
<text x="157.5" y="32" textLength="9" fill="#d0d0d0">r</text>
<text x="166.5" y="32" textLength="9" fill="#d0d0d0">.</text>
<text x="175.5" y="32" textLength="9" fill="#d0d0d0">G</text>
<text x="184.5" y="32" textLength="9" fill="#d0d0d0">e</text>
<text x="193.5" y="32" textLength="9" fill="#d0d0d0">t</text>
<text x="4.5" y="50" textLength="9" fill="#505050">│</text>
<text x="22.5" y="50" textLength="9" fill="#505050">├</text>
<text x="31.5" y="50" textLength="9" fill="#505050">─</text>
<text x="58.5" y="50" textLength="9" fill="#d0d0d0">D</text>
<text x="67.5" y="50" textLength="9" fill="#d0d0d0">b</text>
<text x="76.5" y="50" textLength="9" fill="#d0d0d0">.</text>
<text x="85.5" y="50" textLength="9" fill="#d0d0d0">Q</text>
<text x="94.5" y="50" textLength="9" fill="#d0d0d0">u</text>
<text x="103.5" y="50" textLength="9" fill="#d0d0d0">e</text>
<text x="112.5" y="50" textLength="9" fill="#d0d0d0">r</text>
<text x="121.5" y="50" textLength="9" fill="#d0d0d0">y</text>
<text x="4.5" y="68" textLength="9" fill="#505050">│</text>
<text x="22.5" y="68" textLength="9" fill="#505050">└</text>
<text x="31.5" y="68" textLength="9" fill="#505050">─</text>
<text x="58.5" y="68" textLength="9" fill="#d0d0d0">J</text>
<text x="67.5" y="68" textLength="9" fill="#d0d0d0">s</text>
<text x="76.5" y="68" textLength="9" fill="#d0d0d0">o</text>
<text x="85.5" y="68" textLength="9" fill="#d0d0d0">n</text>
<text x="94.5" y="68" textLength="9" fill="#d0d0d0">.</text>
<text x="103.5" y="68" textLength="9" fill="#d0d0d0">S</text>
<text x="112.5" y="68" textLength="9" fill="#d0d0d0">e</text>
<text x="121.5" y="68" textLength="9" fill="#d0d0d0">r</text>
<text x="130.5" y="68" textLength="9" fill="#d0d0d0">i</text>
<text x="139.5" y="68" textLength="9" fill="#d0d0d0">a</text>
<text x="148.5" y="68" textLength="9" fill="#d0d0d0">l</text>
<text x="157.5" y="68" textLength="9" fill="#d0d0d0">i</text>
<text x="166.5" y="68" textLength="9" fill="#d0d0d0">z</text>
<text x="175.5" y="68" textLength="9" fill="#d0d0d0">e</text>
<text x="4.5" y="86" textLength="9" fill="#505050">└</text>
<text x="13.5" y="86" textLength="9" fill="#505050">─</text>
<text x="40.5" y="86" textLength="9" fill="#d0d0d0">M</text>
<text x="49.5" y="86" textLength="9" fill="#d0d0d0">i</text>
<text x="58.5" y="86" textLength="9" fill="#d0d0d0">d</text>
<text x="67.5" y="86" textLength="9" fill="#d0d0d0">d</text>
<text x="76.5" y="86" textLength="9" fill="#d0d0d0">l</text>
<text x="85.5" y="86" textLength="9" fill="#d0d0d0">e</text>
<text x="94.5" y="86" textLength="9" fill="#d0d0d0">w</text>
<text x="103.5" y="86" textLength="9" fill="#d0d0d0">a</text>
<text x="112.5" y="86" textLength="9" fill="#d0d0d0">r</text>
<text x="121.5" y="86" textLength="9" fill="#d0d0d0">e</text>
<text x="130.5" y="86" textLength="9" fill="#d0d0d0">.</text>
<text x="139.5" y="86" textLength="9" fill="#d0d0d0">L</text>
<text x="148.5" y="86" textLength="9" fill="#d0d0d0">o</text>
<text x="157.5" y="86" textLength="9" fill="#d0d0d0">g</text>
</g>
</g>
</svg>
